<svg width="120" height="120" viewBox="0 0 120 120" fill="none" xmlns="http://www.w3.org/2000/svg">
  <!-- Nordic Rune "B" inspired design -->
  <circle cx="60" cy="60" r="58" stroke="url(#gradient)" stroke-width="2" fill="none" />

  <!-- Stylized "B" with Nordic rune aesthetic -->
  <path d="M40 30 L40 90 L60 90 C70 90 75 85 75 75 C75 70 72 65 68 63 C72 61 75 56 75 50 C75 40 70 30 60 30 Z"
        fill="url(#gradient)" />
  <path d="M48 45 L60 45 C65 45 67 47 67 50 C67 53 65 55 60 55 L48 55 Z"
        fill="#1A1A2E" />
  <path d="M48 63 L60 63 C66 63 68 65 68 75 C68 78 66 82 60 82 L48 82 Z"
        fill="#1A1A2E" />

  <!-- Norse geometric patterns -->
  <circle cx="60" cy="20" r="3" fill="#14F195" />
  <circle cx="60" cy="100" r="3" fill="#14F195" />
  <circle cx="20" cy="60" r="3" fill="#9945FF" />
  <circle cx="100" cy="60" r="3" fill="#9945FF" />

  <defs>
    <linearGradient id="gradient" x1="0%" y1="0%" x2="100%" y2="100%">
      <stop offset="0%" style="stop-color:#9945FF;stop-opacity:1" />
      <stop offset="50%" style="stop-color:#14F195;stop-opacity:1" />
      <stop offset="100%" style="stop-color:#00D4AA;stop-opacity:1" />
    </linearGradient>
  </defs>

  <!-- Glow effect -->
  <circle cx="60" cy="60" r="58" stroke="#14F195" stroke-width="1" fill="none" opacity="0.3" />
</svg>
